<svg width="512" height="512" viewBox="0 0 512 512" fill="none" xmlns="http://www.w3.org/2000/svg">
  <rect width="512" height="512" rx="100" fill="#14532D"/>
  <rect x="34" y="34" width="444" height="444" rx="86" fill="#0F3F21" stroke="#C8A64A" stroke-width="10"/>
  <path d="M182 140C182 108 208 82 240 82C217 95 202 120 202 148C202 176 217 201 240 214C208 214 182 188 182 156V140Z" fill="#E9D59A"/>
  <path d="M269 123L278 139H296L281 149L287 166L269 156L251 166L257 149L242 139H260L269 123Z" fill="#E9D59A"/>
  <g>
    <rect x="182" y="204" width="148" height="190" rx="20" fill="#0B0B0B" stroke="#2A2A2A" stroke-width="8"/>
    <rect x="182" y="220" width="148" height="24" fill="#C8A64A"/>
    <rect x="204" y="278" width="36" height="116" rx="4" fill="#111827"/>
    <rect x="248" y="278" width="36" height="116" rx="4" fill="#111827"/>
    <rect x="292" y="278" width="20" height="116" rx="4" fill="#111827"/>
  </g>
  <path d="M150 418H362" stroke="#D9C27B" stroke-width="16" stroke-linecap="round"/>
</svg>
