<svg width="512" height="512" viewBox="0 0 512 512" fill="none" xmlns="http://www.w3.org/2000/svg">
  <rect width="512" height="512" rx="100" fill="#070708"/>
  <rect x="32" y="32" width="448" height="448" rx="86" fill="#101012" stroke="#D4AF37" stroke-width="10"/>
  <circle cx="256" cy="248" r="154" fill="#D4AF37" opacity="0.15"/>
  <path d="M190 146C190 111 218 83 253 83C228 97 212 123 212 155C212 186 228 212 253 226C218 226 190 198 190 163V146Z" fill="#09090A"/>
  <path d="M284 126L293 143H311L296 153L302 171L284 161L266 171L272 153L257 143H275L284 126Z" fill="#09090A"/>
  <g>
    <rect x="182" y="204" width="148" height="190" rx="20" fill="#09090A" stroke="#38383B" stroke-width="8"/>
    <rect x="182" y="220" width="148" height="24" fill="#D4AF37"/>
    <rect x="204" y="278" width="36" height="116" rx="4" fill="#111214"/>
    <rect x="248" y="278" width="36" height="116" rx="4" fill="#111214"/>
    <rect x="292" y="278" width="20" height="116" rx="4" fill="#111214"/>
  </g>
  <path d="M150 418H362" stroke="#D4AF37" stroke-width="16" stroke-linecap="round"/>
</svg>
