<svg width="192" height="192" viewBox="0 0 192 192" fill="none" xmlns="http://www.w3.org/2000/svg">
  <rect width="192" height="192" rx="36" fill="#080809"/>
  <rect x="12" y="12" width="168" height="168" rx="32" fill="#101012" stroke="#D4AF37" stroke-width="4"/>
  <circle cx="96" cy="94" r="58" fill="#D4AF37" opacity="0.18"/>
  <path d="M69 63C69 50 80 39 93 39C84 45 78 55 78 67C78 79 84 89 93 95C80 95 69 84 69 71V63Z" fill="#0A0A0B"/>
  <path d="M106 51L109 57H116L111 60L113 66L106 63L99 66L101 60L96 57H103L106 51Z" fill="#0A0A0B"/>
  <rect x="70" y="78" width="54" height="69" rx="8" fill="#0A0A0B" stroke="#3A3A3D" stroke-width="3"/>
  <rect x="70" y="84" width="54" height="9" fill="#D4AF37"/>
  <rect x="76" y="102" width="12" height="45" rx="2" fill="#111214"/>
  <rect x="91" y="102" width="12" height="45" rx="2" fill="#111214"/>
  <rect x="106" y="102" width="12" height="45" rx="2" fill="#111214"/>
  <path d="M50 160H142" stroke="#D4AF37" stroke-width="6" stroke-linecap="round"/>
</svg>
