<svg width="192" height="192" viewBox="0 0 192 192" fill="none" xmlns="http://www.w3.org/2000/svg">
  <rect width="192" height="192" rx="36" fill="#14532D"/>
  <rect x="13" y="13" width="166" height="166" rx="32" fill="#0F3F21" stroke="#C8A64A" stroke-width="4"/>
  <path d="M66 50C66 38 76 28 88 28C79 33 74 42 74 53C74 64 79 73 88 78C76 78 66 68 66 56V50Z" fill="#E9D59A"/>
  <path d="M98 42L101 47H107L103 50L105 56L98 53L91 56L93 50L89 47H95L98 42Z" fill="#E9D59A"/>
  <rect x="66" y="74" width="60" height="76" rx="8" fill="#0B0B0B" stroke="#2A2A2A" stroke-width="3"/>
  <rect x="66" y="80" width="60" height="10" fill="#C8A64A"/>
  <rect x="74" y="104" width="14" height="46" rx="2" fill="#111827"/>
  <rect x="92" y="104" width="14" height="46" rx="2" fill="#111827"/>
  <rect x="110" y="104" width="8" height="46" rx="2" fill="#111827"/>
  <path d="M52 160H140" stroke="#D9C27B" stroke-width="6" stroke-linecap="round"/>
</svg>
